<svg viewBox="0 0 800 260" xmlns="http://www.w3.org/2000/svg" style="max-width:100%;font-family:system-ui,sans-serif">
  <defs>
    <marker id="arr3" markerWidth="8" markerHeight="6" refX="8" refY="3" orient="auto"><path d="M0,0 L8,3 L0,6" fill="#475569"/></marker>
  </defs>
  <rect x="10" y="10" width="170" height="240" rx="8" fill="#f8fafc" stroke="#94a3b8" stroke-width="1.5"/>
  <text x="95" y="35" text-anchor="middle" font-size="13" fill="#334155" font-weight="600">Capability Areas</text>
  <text x="30" y="60" font-size="11" fill="#16a34a">● stability     0.8</text>
  <text x="30" y="80" font-size="11" fill="#16a34a">● performance   0.7</text>
  <text x="30" y="100" font-size="11" fill="#ca8a04">● coordination  0.5</text>
  <text x="30" y="120" font-size="11" fill="#dc2626">● autonomy      0.2</text>
  <text x="30" y="140" font-size="11" fill="#94a3b8">○ cog-memory    ABSENT</text>
  <text x="30" y="165" font-size="10" fill="#64748b" font-style="italic">assess() → health score</text>
  <text x="30" y="180" font-size="10" fill="#64748b" font-style="italic">         → landscape position</text>
  <text x="30" y="195" font-size="10" fill="#64748b" font-style="italic">         → impact / cost / ROI</text>
  <rect x="220" y="10" width="160" height="130" rx="8" fill="#fef2f2" stroke="#dc2626" stroke-width="1.5"/>
  <text x="300" y="35" text-anchor="middle" font-size="13" fill="#991b1b" font-weight="600">Gap Map</text>
  <text x="300" y="55" text-anchor="middle" font-size="11" fill="#b91c1c">sorted by ROI ↓</text>
  <text x="240" y="80" font-size="11" fill="#334155">1. autonomy       2.67</text>
  <text x="240" y="100" font-size="11" fill="#334155">2. cog-memory     ∞</text>
  <text x="240" y="120" font-size="11" fill="#334155">3. coordination   1.25</text>
  <rect x="420" y="10" width="170" height="130" rx="8" fill="#eff6ff" stroke="#2563eb" stroke-width="1.5"/>
  <text x="505" y="35" text-anchor="middle" font-size="13" fill="#1e40af" font-weight="600">Research Pipeline</text>
  <text x="440" y="60" font-size="11" fill="#1d4ed8">Scoper →</text>
  <text x="440" y="80" font-size="11" fill="#1d4ed8">  Searcher →</text>
  <text x="440" y="100" font-size="11" fill="#1d4ed8">    Analyser →</text>
  <text x="440" y="120" font-size="11" fill="#1d4ed8">      Hypothesis Former</text>
  <rect x="630" y="10" width="150" height="130" rx="8" fill="#dcfce7" stroke="#16a34a" stroke-width="1.5"/>
  <text x="705" y="35" text-anchor="middle" font-size="13" fill="#14532d" font-weight="600">Hypotheses</text>
  <text x="650" y="60" font-size="11" fill="#166534">technique: X</text>
  <text x="650" y="80" font-size="11" fill="#166534">target: autonomy</text>
  <text x="650" y="100" font-size="11" fill="#166534">radar: TRIAL</text>
  <text x="650" y="120" font-size="11" fill="#166534">→ signal deposit</text>
  <line x1="180" y1="75" x2="217" y2="75" stroke="#475569" stroke-width="1.5" marker-end="url(#arr3)"/>
  <line x1="380" y1="75" x2="417" y2="75" stroke="#475569" stroke-width="1.5" marker-end="url(#arr3)"/>
  <line x1="590" y1="75" x2="627" y2="75" stroke="#475569" stroke-width="1.5" marker-end="url(#arr3)"/>
  <rect x="420" y="160" width="360" height="80" rx="8" fill="#f5f3ff" stroke="#7c3aed" stroke-width="1.5"/>
  <text x="600" y="185" text-anchor="middle" font-size="13" fill="#5b21b6" font-weight="600">Research Corpus (Living Systematic Review)</text>
  <text x="600" y="205" text-anchor="middle" font-size="11" fill="#6d28d9">findings persist across cycles</text>
  <text x="600" y="225" text-anchor="middle" font-size="11" fill="#6d28d9">Technology Radar tracks maturity</text>
  <line x1="505" y1="140" x2="505" y2="157" stroke="#7c3aed" stroke-width="1.5" marker-end="url(#arr3)"/>
</svg>
